<svg xmlns="http://www.w3.org/2000/svg" version="1.1" xmlns:xlink="http://www.w3.org/1999/xlink" xmlns:svgjs="http://svgjs.dev/svgjs" width="1000" height="308" viewBox="0 0 1000 308"><g transform="matrix(1,0,0,1,-0.6060606060606233,-0.38702986991771127)"><svg viewBox="0 0 396 122" data-background-color="#ffffff" preserveAspectRatio="xMidYMid meet" height="308" width="1000" xmlns="http://www.w3.org/2000/svg" xmlns:xlink="http://www.w3.org/1999/xlink"><defs></defs><g id="tight-bounds" transform="matrix(1,0,0,1,0.2400000000000091,0.15330403938298787)"><svg viewBox="0 0 395.52 121.69339192123404" height="121.69339192123404" width="395.52"><g><svg viewBox="0 0 618.2298221625906 190.21663644272593" height="121.69339192123404" width="395.52"><g transform="matrix(1,0,0,1,0,26.288985210246494)"><svg viewBox="0 0 395.52 137.63866602223294" height="137.63866602223294" width="395.52"><g><svg viewBox="0 0 395.52 137.63866602223294" height="137.63866602223294" width="395.52"><g><svg viewBox="0 0 395.52 137.63866602223294" height="137.63866602223294" width="395.52"><g transform="matrix(1,0,0,1,0,0)"><svg width="395.52" viewBox="3 -35.25 103.44000244140625 36" height="137.63866602223294" data-palette-color="#4b91f1"><path d="M24.6-34.55L24.6 0 16.5 0 7.75-28.3Q8.15-24.7 8.38-21.68 8.6-18.65 8.6-14.5L8.6-14.5 8.6 0 3 0 3-34.55 11.05-34.55 19.8-6.25Q19.5-8.05 19.23-11.35 18.95-14.65 18.95-18.05L18.95-18.05 18.95-34.55 24.6-34.55ZM30.6-34.55L47.75-34.55 47.1-29.8 36.95-29.8 36.95-19.9 45.8-19.9 45.8-15.2 36.95-15.2 36.95-4.8 47.75-4.8 47.75 0 30.6 0 30.6-34.55ZM77.75-34.55L83.65-34.55 78.8 0 70.45 0 66.75-27.8 62.9 0 54.7 0 49.95-34.55 56.1-34.55 59.3-5.1 63.45-34.55 70.2-34.55 74.25-5.1 77.75-34.55ZM96.09-35.25Q99.09-35.25 101.39-34.2 103.69-33.15 105.64-31.05L105.64-31.05 102.69-27.65Q101.14-29.05 99.67-29.75 98.19-30.45 96.54-30.45L96.54-30.45Q94.64-30.45 93.54-29.28 92.44-28.1 92.44-26.2L92.44-26.2Q92.44-24.3 93.59-23.1 94.74-21.9 98.09-20.6L98.09-20.6Q102.39-18.85 104.42-16.5 106.44-14.15 106.44-9.85L106.44-9.85Q106.44-6.9 105.09-4.48 103.74-2.05 101.22-0.65 98.69 0.75 95.34 0.75L95.34 0.75Q91.89 0.75 89.34-0.48 86.79-1.7 84.69-3.95L84.69-3.95 87.89-7.45Q89.69-5.85 91.34-5 92.99-4.15 94.94-4.15L94.94-4.15Q97.24-4.15 98.52-5.58 99.79-7 99.79-9.45L99.79-9.45Q99.79-11.6 98.67-12.98 97.54-14.35 94.49-15.5L94.49-15.5Q89.89-17.35 87.87-19.75 85.84-22.15 85.84-25.75L85.84-25.75Q85.84-28.5 87.17-30.65 88.49-32.8 90.84-34.02 93.19-35.25 96.09-35.25L96.09-35.25Z" opacity="1" transform="matrix(1,0,0,1,0,0)" fill="#4b91f1" class="undefined-text-0" data-fill-palette-color="primary" id="text-0"></path></svg></g></svg></g></svg></g></svg></g><g transform="matrix(1,0,0,1,428.0131857198646,0)"><svg viewBox="0 0 190.21663644272593 190.21663644272593" height="190.21663644272593" width="190.21663644272593"><g data-palette-color="#4b91f1"><rect width="51.99254729434509" height="190.21663644272593" fill="#4b91f1" stroke="transparent" data-fill-palette-color="accent" x="0" fill-opacity="1"></rect><rect width="51.99254729434509" height="190.21663644272593" fill="#4b91f1" stroke="transparent" data-fill-palette-color="accent" x="63.40554548090864" fill-opacity="0.75"></rect><rect width="51.99254729434509" height="190.21663644272593" fill="#4b91f1" stroke="transparent" data-fill-palette-color="accent" x="126.81109096181729" fill-opacity="0.5"></rect></g></svg></g></svg></g></svg><rect width="395.52" height="121.69339192123404" fill="none" stroke="none" visibility="hidden"></rect></g></svg></g></svg>